<?xml version="1.0" encoding="UTF-8" standalone="no"?>
<!DOCTYPE svg PUBLIC "-//W3C//DTD SVG 1.1//EN"
"http://www.w3.org/Graphics/SVG/1.1/DTD/svg11.dtd">
<svg 
	viewBox="0 0 909 1286" 
	version="1.1" 
	xmlns="http://www.w3.org/2000/svg" 
	xmlns:xlink="http://www.w3.org/1999/xlink">
	<defs>
	<style type="text/css"><![CDATA[
	.g0{
	fill: none;
	stroke: #000000;
	stroke-width: 1.527;
	stroke-linecap: butt;
	stroke-linejoin: miter;
	}
	.g1{
	fill: #F6F4F3;
	}
	.g2{
	fill: #FFFFFF;
	}
	.g3{
	fill: none;
	stroke: #DFDFDF;
	stroke-width: 0.152;
	stroke-linecap: square;
	stroke-linejoin: miter;
	}
	]]></style>
	</defs>
	<path d="M55,1231.4H854" class="g0"/>
	<image 
		preserveAspectRatio="none" 
		x="55" 
		y="27" 
		height="74" 
		xlink:href="logo.jpeg"/>

	<path d="M55,110H854M55,165H854" class="g0"/>
	<path d="M55,305.6H454.5V275H55v30.6Z" class="g1"/>
	<path d="M454.5,305.6H854V275H454.5v30.6Z" class="g2"/>
	<path d="M55,336.1H454.5V305.6H55v30.5Z" class="g1"/>
	<path d="M454.5,336.1H854V305.6H454.5v30.5Z" class="g2"/>
	<path d="M55,305.6H454.5V275H55v30.6Zm399.5,0H854V275H454.5v30.6ZM55,336.1H454.5V305.6H55v30.5Zm399.5,0H854V305.6H454.5v30.5Z" class="g3"/>
	<path d="M55,449.2H454.5V418.6H55v30.6Z" class="g1"/>
	<path d="M454.5,449.2H854V418.6H454.5v30.6Z" class="g2"/>
	<path d="M55,479.7H454.5V449.2H55v30.5Z" class="g1"/>
	<path d="M454.5,479.7H854V449.2H454.5v30.5Z" class="g2"/>
	<path d="M55,510.3H454.5V479.7H55v30.6Z" class="g1"/>
	<path d="M454.5,510.3H854V479.7H454.5v30.6Z" class="g2"/>
	<path d="M55,449.2H454.5V418.6H55v30.6Zm399.5,0H854V418.6H454.5v30.6ZM55,479.7H454.5V449.2H55v30.5Zm399.5,0H854V449.2H454.5v30.5ZM55,510.3H454.5V479.7H55v30.6Zm399.5,0H854V479.7H454.5v30.6Z" class="g3"/>
	<path d="M55,623.3H454.5V592.8H55v30.5Z" class="g1"/>
	<path d="M454.5,623.3H854V592.8H454.5v30.5Z" class="g2"/>
	<path d="M55,653.9H454.5V623.3H55v30.6Z" class="g1"/>
	<path d="M454.5,653.9H854V623.3H454.5v30.6Z" class="g2"/>
	<path d="M55,684.4H454.5V653.9H55v30.5Z" class="g1"/>
	<path d="M454.5,684.4H854V653.9H454.5v30.5Z" class="g2"/>
	<path d="M55,715H454.5V684.4H55V715Z" class="g1"/>
	<path d="M454.5,715H854V684.4H454.5V715Z" class="g2"/>
	<path d="M55,745.6H454.5V715H55v30.6Z" class="g1"/>
	<path d="M454.5,745.6H854V715H454.5v30.6Z" class="g2"/>
	<path d="M55,776.1H454.5V745.6H55v30.5Z" class="g1"/>
	<path d="M454.5,776.1H854V745.6H454.5v30.5Z" class="g2"/>
	<path d="M55,806.7H454.5V776.1H55v30.6Z" class="g1"/>
	<path d="M454.5,806.7H854V776.1H454.5v30.6Z" class="g2"/>
	<path d="M55,837.2H454.5V806.7H55v30.5Z" class="g1"/>
	<path d="M454.5,837.2H854V806.7H454.5v30.5Z" class="g2"/>
	<path d="M55,867.8H454.5V837.2H55v30.6Z" class="g1"/>
	<path d="M454.5,867.8H854V837.2H454.5v30.6Z" class="g2"/>
	<path d="M55,623.3H454.5V592.8H55v30.5Zm399.5,0H854V592.8H454.5v30.5ZM55,653.9H454.5V623.3H55v30.6Zm399.5,0H854V623.3H454.5v30.6ZM55,684.4H454.5V653.9H55v30.5Zm399.5,0H854V653.9H454.5v30.5ZM55,715H454.5V684.4H55V715Zm399.5,0H854V684.4H454.5V715ZM55,745.6H454.5V715H55v30.6Zm399.5,0H854V715H454.5v30.6ZM55,776.1H454.5V745.6H55v30.5Zm399.5,0H854V745.6H454.5v30.5ZM55,806.7H454.5V776.1H55v30.6Zm399.5,0H854V776.1H454.5v30.6ZM55,837.2H454.5V806.7H55v30.5Zm399.5,0H854V806.7H454.5v30.5ZM55,867.8H454.5V837.2H55v30.6Zm399.5,0H854V837.2H454.5v30.6Z" class="g3"/>
</svg>